<svg xmlns="http://www.w3.org/2000/svg" width="40" height="40" fill="none"><g opacity=".9"><rect width="40" height="40" fill="#fff" rx="20"/><path fill="#181D27" d="M12.808 27q-.758 0-1.283-.525A1.75 1.75 0 0 1 11 25.192V13.808q0-.758.525-1.283T12.808 12h15.384q.758 0 1.283.525T30 13.808v11.384q0 .758-.525 1.283T28.192 27zM28.5 14.942l-7.514 4.81a1.2 1.2 0 0 1-.238.103.85.85 0 0 1-.496 0 1.2 1.2 0 0 1-.238-.103l-7.514-4.81v10.25a.3.3 0 0 0 .086.221.3.3 0 0 0 .222.087h15.384a.3.3 0 0 0 .221-.087.3.3 0 0 0 .087-.22zm-8 3.558 7.846-5H12.654zm-8-3.327V14.03v.03-.032z"/></g></svg>