<svg xmlns="http://www.w3.org/2000/svg" width="40" height="40" fill="none"><g opacity=".9"><rect width="40" height="40" fill="#fff" rx="20"/><path fill="#181D27" d="M20.5 29q-2.535 0-4.142-.727-1.608-.726-1.608-1.879 0-.456.309-.855.308-.4.878-.722a.77.77 0 0 1 .575-.118q.311.055.484.318a.72.72 0 0 1 .106.57.75.75 0 0 1-.33.48 2 2 0 0 0-.313.145q-.15.086-.178.172.248.45 1.476.782 1.228.334 2.743.334 1.516 0 2.743-.334 1.228-.333 1.476-.782-.028-.086-.178-.172a2 2 0 0 0-.312-.145.75.75 0 0 1-.331-.48.72.72 0 0 1 .106-.57.7.7 0 0 1 .484-.318.77.77 0 0 1 .576.118q.569.321.877.721t.309.856q0 1.152-1.608 1.879T20.5 29m.025-4.875q2.484-1.882 3.73-3.73 1.245-1.847 1.245-3.668 0-2.588-1.62-3.908T20.5 11.5q-1.75 0-3.375 1.32-1.625 1.318-1.625 3.907 0 1.704 1.23 3.53 1.23 1.828 3.795 3.868m-.025 1.439q-.271 0-.542-.096a1.8 1.8 0 0 1-.502-.276q-2.748-2.215-4.102-4.323T14 16.727q0-1.67.59-2.925t1.521-2.103a6.3 6.3 0 0 1 2.092-1.273A6.6 6.6 0 0 1 20.5 10q1.139 0 2.297.426a6.3 6.3 0 0 1 2.092 1.273q.931.848 1.521 2.103t.59 2.925q0 2.034-1.354 4.142t-4.102 4.323q-.23.18-.502.276-.27.096-.542.096m0-7.17q.749 0 1.278-.525.53-.525.53-1.282a1.74 1.74 0 0 0-.53-1.278 1.74 1.74 0 0 0-1.278-.53q-.739 0-1.273.53-.535.53-.535 1.278 0 .757.535 1.282.534.525 1.273.525"/></g></svg>