<svg xmlns="http://www.w3.org/2000/svg" width="40" height="40" fill="none"><g opacity=".9"><rect width="40" height="40" fill="#fff" rx="20"/><path fill="#181D27" d="M27.94 28q-2.826 0-5.68-1.314-2.852-1.315-5.242-3.709t-3.703-5.242Q12 14.886 12 12.06A1.03 1.03 0 0 1 13.05 11h3.261q.38 0 .669.247t.368.61l.573 2.943q.06.41-.025.704t-.304.494l-2.31 2.248q.558 1.02 1.275 1.932a19 19 0 0 0 1.55 1.74 17.2 17.2 0 0 0 3.753 2.842l2.244-2.264a1.27 1.27 0 0 1 .568-.342q.334-.099.694-.048l2.776.565q.38.1.619.387.24.285.239.65v3.242q0 .45-.303.75t-.757.3M14.573 16.827l1.785-1.708a.18.18 0 0 0 .062-.105.23.23 0 0 0-.005-.125l-.434-2.235a.2.2 0 0 0-.067-.115.2.2 0 0 0-.125-.039H13.65a.13.13 0 0 0-.135.135 12.8 12.8 0 0 0 1.058 4.192m8.7 8.642q.994.465 2.074.709t2.018.291a.13.13 0 0 0 .135-.135v-2.103a.2.2 0 0 0-.038-.125.2.2 0 0 0-.116-.068l-2.1-.427a.16.16 0 0 0-.1-.004.25.25 0 0 0-.092.062z"/></g></svg>